<svg width="588" height="354" viewBox="0 0 588 354" fill="none" xmlns="http://www.w3.org/2000/svg">
<rect width="588" height="354" rx="10" fill="#18181A"/>
<path d="M160.009 37.6364H164.523L170.568 52.392H170.807L176.852 37.6364H181.366V58H177.827V44.0099H177.638L172.01 57.9403H169.365L163.737 43.9801H163.548V58H160.009V37.6364ZM187.462 63.7273C186.971 63.7273 186.517 63.6875 186.099 63.608C185.688 63.535 185.36 63.4489 185.115 63.3494L185.95 60.5455C186.474 60.6979 186.941 60.7708 187.352 60.7642C187.763 60.7576 188.125 60.6283 188.436 60.3764C188.754 60.1312 189.023 59.7202 189.241 59.1435L189.55 58.3182L184.011 42.7273H187.83L191.349 54.2614H191.509L195.038 42.7273H198.866L192.751 59.8494C192.466 60.6581 192.089 61.3509 191.618 61.9276C191.147 62.5109 190.571 62.955 189.888 63.2599C189.212 63.5715 188.403 63.7273 187.462 63.7273ZM213.97 58.2685C212.77 58.2685 211.696 57.9602 210.749 57.3438C209.801 56.7273 209.052 55.8324 208.501 54.6591C207.951 53.4858 207.676 52.0606 207.676 50.3835C207.676 48.6866 207.955 47.2547 208.511 46.0881C209.075 44.9148 209.834 44.0298 210.788 43.4332C211.743 42.83 212.807 42.5284 213.98 42.5284C214.875 42.5284 215.611 42.6809 216.188 42.9858C216.764 43.2841 217.222 43.6454 217.56 44.0696C217.898 44.4872 218.16 44.8816 218.345 45.2528H218.494V37.6364H222.104V58H218.564V55.5938H218.345C218.16 55.965 217.891 56.3594 217.54 56.777C217.188 57.188 216.724 57.5393 216.148 57.831C215.571 58.1226 214.845 58.2685 213.97 58.2685ZM214.974 55.3153C215.737 55.3153 216.386 55.1098 216.923 54.6989C217.46 54.2812 217.868 53.7012 218.146 52.9588C218.425 52.2164 218.564 51.3513 218.564 50.3636C218.564 49.3759 218.425 48.5175 218.146 47.7884C217.875 47.0592 217.47 46.4924 216.933 46.0881C216.403 45.6837 215.75 45.4815 214.974 45.4815C214.172 45.4815 213.503 45.6903 212.966 46.108C212.429 46.5256 212.025 47.1023 211.753 47.8381C211.481 48.5739 211.345 49.4157 211.345 50.3636C211.345 51.3182 211.481 52.17 211.753 52.919C212.031 53.6615 212.439 54.2481 212.976 54.679C213.519 55.1032 214.186 55.3153 214.974 55.3153ZM232.701 58.2983C231.169 58.2983 229.847 57.9801 228.733 57.3438C227.626 56.7008 226.775 55.7926 226.178 54.6193C225.581 53.4394 225.283 52.0507 225.283 50.4531C225.283 48.8821 225.581 47.5033 226.178 46.3168C226.781 45.1236 227.623 44.1955 228.703 43.5327C229.784 42.8632 231.053 42.5284 232.512 42.5284C233.453 42.5284 234.341 42.6809 235.176 42.9858C236.018 43.2841 236.761 43.7481 237.404 44.3778C238.053 45.0076 238.564 45.8097 238.935 46.7841C239.306 47.7519 239.492 48.9053 239.492 50.2443V51.348H226.973V48.9219H236.042C236.035 48.2325 235.886 47.6193 235.594 47.0824C235.302 46.5388 234.895 46.1113 234.371 45.7997C233.854 45.4882 233.251 45.3324 232.561 45.3324C231.826 45.3324 231.179 45.5114 230.623 45.8693C230.066 46.2206 229.632 46.6847 229.32 47.2614C229.015 47.8314 228.859 48.4579 228.853 49.1406V51.2585C228.853 52.1468 229.015 52.9091 229.34 53.5455C229.665 54.1752 230.119 54.6591 230.702 54.9972C231.285 55.3286 231.968 55.4943 232.75 55.4943C233.274 55.4943 233.748 55.4214 234.172 55.2756C234.596 55.1231 234.964 54.901 235.276 54.6094C235.587 54.3177 235.823 53.9564 235.982 53.5256L239.343 53.9034C239.131 54.7917 238.726 55.5672 238.13 56.2301C237.54 56.8864 236.784 57.3968 235.863 57.7614C234.941 58.1193 233.887 58.2983 232.701 58.2983ZM255.741 42.7273L250.303 58H246.325L240.886 42.7273H244.724L248.234 54.0724H248.393L251.913 42.7273H255.741ZM258.232 58V42.7273H261.832V58H258.232ZM260.042 40.5597C259.472 40.5597 258.981 40.3707 258.57 39.9929C258.159 39.6084 257.954 39.1477 257.954 38.6108C257.954 38.0672 258.159 37.6065 258.57 37.2287C258.981 36.8442 259.472 36.652 260.042 36.652C260.619 36.652 261.109 36.8442 261.513 37.2287C261.924 37.6065 262.13 38.0672 262.13 38.6108C262.13 39.1477 261.924 39.6084 261.513 39.9929C261.109 40.3707 260.619 40.5597 260.042 40.5597ZM272.195 58.2983C270.67 58.2983 269.361 57.9635 268.267 57.294C267.18 56.6245 266.342 55.6998 265.752 54.5199C265.168 53.3333 264.877 51.9678 264.877 50.4233C264.877 48.8722 265.175 47.5033 265.772 46.3168C266.368 45.1236 267.21 44.1955 268.297 43.5327C269.391 42.8632 270.684 42.5284 272.175 42.5284C273.415 42.5284 274.512 42.7571 275.466 43.2145C276.427 43.6652 277.193 44.3049 277.763 45.1335C278.333 45.9555 278.658 46.9167 278.738 48.017H275.297C275.158 47.2812 274.827 46.6681 274.303 46.1776C273.786 45.6804 273.093 45.4318 272.225 45.4318C271.489 45.4318 270.843 45.6307 270.286 46.0284C269.729 46.4195 269.295 46.983 268.983 47.7188C268.678 48.4545 268.526 49.3362 268.526 50.3636C268.526 51.4044 268.678 52.2992 268.983 53.0483C269.288 53.7907 269.716 54.3641 270.266 54.7685C270.823 55.1662 271.476 55.3651 272.225 55.3651C272.755 55.3651 273.229 55.2656 273.647 55.0668C274.071 54.8613 274.426 54.5663 274.711 54.1818C274.996 53.7973 275.191 53.33 275.297 52.7798H278.738C278.651 53.8603 278.333 54.8182 277.783 55.6534C277.233 56.482 276.484 57.1316 275.536 57.6023C274.588 58.0663 273.474 58.2983 272.195 58.2983ZM288.455 58.2983C286.923 58.2983 285.601 57.9801 284.487 57.3438C283.38 56.7008 282.528 55.7926 281.932 54.6193C281.335 53.4394 281.037 52.0507 281.037 50.4531C281.037 48.8821 281.335 47.5033 281.932 46.3168C282.535 45.1236 283.377 44.1955 284.457 43.5327C285.538 42.8632 286.807 42.5284 288.266 42.5284C289.207 42.5284 290.095 42.6809 290.93 42.9858C291.772 43.2841 292.515 43.7481 293.158 44.3778C293.807 45.0076 294.318 45.8097 294.689 46.7841C295.06 47.7519 295.246 48.9053 295.246 50.2443V51.348H282.727V48.9219H291.795C291.789 48.2325 291.64 47.6193 291.348 47.0824C291.056 46.5388 290.649 46.1113 290.125 45.7997C289.608 45.4882 289.005 45.3324 288.315 45.3324C287.58 45.3324 286.933 45.5114 286.376 45.8693C285.82 46.2206 285.385 46.6847 285.074 47.2614C284.769 47.8314 284.613 48.4579 284.607 49.1406V51.2585C284.607 52.1468 284.769 52.9091 285.094 53.5455C285.419 54.1752 285.873 54.6591 286.456 54.9972C287.039 55.3286 287.722 55.4943 288.504 55.4943C289.028 55.4943 289.502 55.4214 289.926 55.2756C290.35 55.1231 290.718 54.901 291.03 54.6094C291.341 54.3177 291.577 53.9564 291.736 53.5256L295.097 53.9034C294.884 54.7917 294.48 55.5672 293.884 56.2301C293.294 56.8864 292.538 57.3968 291.616 57.7614C290.695 58.1193 289.641 58.2983 288.455 58.2983ZM310.362 46.7642L307.081 47.1222C306.988 46.7907 306.825 46.4792 306.593 46.1875C306.368 45.8958 306.063 45.6605 305.679 45.4815C305.294 45.3026 304.824 45.2131 304.267 45.2131C303.518 45.2131 302.888 45.3755 302.377 45.7003C301.874 46.0251 301.625 46.446 301.632 46.9631C301.625 47.4072 301.788 47.7685 302.119 48.0469C302.457 48.3253 303.014 48.554 303.789 48.733L306.395 49.2898C307.84 49.6013 308.913 50.0952 309.616 50.7713C310.325 51.4474 310.683 52.3324 310.69 53.4261C310.683 54.3873 310.402 55.2358 309.845 55.9716C309.295 56.7008 308.529 57.2708 307.548 57.6818C306.567 58.0928 305.44 58.2983 304.167 58.2983C302.298 58.2983 300.793 57.9072 299.653 57.125C298.513 56.3362 297.833 55.2391 297.615 53.8338L301.125 53.4957C301.284 54.1851 301.622 54.7055 302.139 55.0568C302.656 55.4081 303.329 55.5838 304.157 55.5838C305.012 55.5838 305.699 55.4081 306.216 55.0568C306.739 54.7055 307.001 54.2713 307.001 53.7543C307.001 53.3168 306.832 52.9555 306.494 52.6705C306.163 52.3854 305.645 52.1667 304.943 52.0142L302.338 51.4673C300.873 51.1624 299.789 50.6487 299.086 49.9261C298.384 49.197 298.036 48.2756 298.042 47.1619C298.036 46.2206 298.291 45.4053 298.808 44.7159C299.332 44.0199 300.057 43.483 300.985 43.1051C301.92 42.7206 302.997 42.5284 304.217 42.5284C306.007 42.5284 307.415 42.9096 308.443 43.6719C309.477 44.4342 310.117 45.465 310.362 46.7642Z" fill="white"/>
<g filter="url(#filter0_d_236_145)">
<rect x="158" y="91" width="133" height="108" rx="10" fill="#738ED6"/>
<path d="M186.439 161.091H188.079V168.825C188.079 169.525 187.941 170.123 187.664 170.62C187.39 171.118 187.005 171.498 186.508 171.76C186.011 172.02 185.428 172.149 184.761 172.149C184.146 172.149 183.594 172.037 183.104 171.814C182.618 171.59 182.232 171.265 181.948 170.839C181.668 170.409 181.527 169.887 181.527 169.273H183.163C183.163 169.575 183.232 169.836 183.37 170.056C183.512 170.276 183.706 170.448 183.951 170.572C184.2 170.693 184.484 170.754 184.803 170.754C185.151 170.754 185.446 170.681 185.688 170.535C185.933 170.386 186.119 170.168 186.247 169.88C186.375 169.592 186.439 169.241 186.439 168.825V161.091ZM193.793 172.165C193.026 172.165 192.357 171.989 191.785 171.638C191.214 171.286 190.77 170.794 190.454 170.162C190.138 169.53 189.979 168.792 189.979 167.946C189.979 167.098 190.138 166.355 190.454 165.72C190.77 165.084 191.214 164.591 191.785 164.239C192.357 163.887 193.026 163.712 193.793 163.712C194.56 163.712 195.23 163.887 195.802 164.239C196.373 164.591 196.817 165.084 197.133 165.72C197.449 166.355 197.607 167.098 197.607 167.946C197.607 168.792 197.449 169.53 197.133 170.162C196.817 170.794 196.373 171.286 195.802 171.638C195.23 171.989 194.56 172.165 193.793 172.165ZM193.799 170.828C194.296 170.828 194.708 170.697 195.035 170.434C195.361 170.171 195.603 169.821 195.759 169.385C195.919 168.948 195.999 168.467 195.999 167.941C195.999 167.419 195.919 166.94 195.759 166.503C195.603 166.062 195.361 165.709 195.035 165.443C194.708 165.176 194.296 165.043 193.799 165.043C193.298 165.043 192.883 165.176 192.552 165.443C192.226 165.709 191.982 166.062 191.823 166.503C191.666 166.94 191.588 167.419 191.588 167.941C191.588 168.467 191.666 168.948 191.823 169.385C191.982 169.821 192.226 170.171 192.552 170.434C192.883 170.697 193.298 170.828 193.799 170.828ZM205.516 165.816L204.073 166.071C204.012 165.887 203.916 165.711 203.785 165.544C203.657 165.377 203.483 165.24 203.263 165.134C203.043 165.027 202.768 164.974 202.437 164.974C201.986 164.974 201.61 165.075 201.308 165.278C201.006 165.477 200.855 165.734 200.855 166.05C200.855 166.324 200.956 166.544 201.159 166.711C201.361 166.877 201.688 167.014 202.139 167.121L203.439 167.419C204.192 167.593 204.753 167.861 205.122 168.223C205.491 168.586 205.676 169.056 205.676 169.635C205.676 170.125 205.534 170.562 205.25 170.945C204.969 171.325 204.577 171.624 204.073 171.84C203.572 172.057 202.991 172.165 202.331 172.165C201.415 172.165 200.667 171.97 200.088 171.579C199.509 171.185 199.154 170.626 199.023 169.901L200.562 169.667C200.658 170.068 200.855 170.372 201.154 170.578C201.452 170.78 201.841 170.881 202.32 170.881C202.842 170.881 203.259 170.773 203.572 170.556C203.884 170.336 204.041 170.068 204.041 169.752C204.041 169.496 203.945 169.282 203.753 169.108C203.565 168.934 203.275 168.802 202.885 168.713L201.5 168.41C200.736 168.236 200.172 167.959 199.806 167.579C199.444 167.199 199.263 166.718 199.263 166.135C199.263 165.652 199.398 165.23 199.667 164.868C199.937 164.505 200.31 164.223 200.786 164.021C201.262 163.815 201.807 163.712 202.421 163.712C203.306 163.712 204.002 163.903 204.509 164.287C205.017 164.667 205.353 165.176 205.516 165.816ZM209.02 167.142V172H207.427V161.091H208.998V165.15H209.1C209.291 164.71 209.584 164.36 209.979 164.1C210.373 163.841 210.888 163.712 211.523 163.712C212.084 163.712 212.574 163.827 212.994 164.058C213.416 164.289 213.743 164.633 213.974 165.091C214.208 165.546 214.325 166.114 214.325 166.796V172H212.733V166.988C212.733 166.387 212.578 165.922 212.269 165.592C211.96 165.258 211.53 165.091 210.98 165.091C210.604 165.091 210.266 165.171 209.968 165.331C209.673 165.491 209.441 165.725 209.27 166.034C209.103 166.339 209.02 166.709 209.02 167.142ZM220.42 172V163.818H222.013V172H220.42ZM221.225 162.556C220.948 162.556 220.71 162.463 220.511 162.279C220.316 162.091 220.218 161.867 220.218 161.608C220.218 161.345 220.316 161.121 220.511 160.936C220.71 160.748 220.948 160.654 221.225 160.654C221.502 160.654 221.738 160.748 221.933 160.936C222.132 161.121 222.231 161.345 222.231 161.608C222.231 161.867 222.132 162.091 221.933 162.279C221.738 162.463 221.502 162.556 221.225 162.556ZM224.283 172V161.091H228.172C229.021 161.091 229.724 161.245 230.281 161.554C230.839 161.863 231.256 162.286 231.533 162.822C231.81 163.355 231.949 163.955 231.949 164.623C231.949 165.294 231.808 165.897 231.528 166.434C231.251 166.966 230.832 167.389 230.271 167.701C229.713 168.01 229.012 168.165 228.167 168.165H225.493V166.769H228.017C228.554 166.769 228.989 166.677 229.323 166.492C229.656 166.304 229.901 166.048 230.058 165.725C230.214 165.402 230.292 165.034 230.292 164.623C230.292 164.211 230.214 163.845 230.058 163.525C229.901 163.206 229.655 162.955 229.317 162.774C228.983 162.593 228.543 162.502 227.996 162.502H225.929V172H224.283ZM235.343 167.142V172H233.75V161.091H235.322V165.15H235.423C235.615 164.71 235.908 164.36 236.302 164.1C236.696 163.841 237.211 163.712 237.847 163.712C238.408 163.712 238.898 163.827 239.317 164.058C239.739 164.289 240.066 164.633 240.297 165.091C240.531 165.546 240.648 166.114 240.648 166.796V172H239.056V166.988C239.056 166.387 238.901 165.922 238.592 165.592C238.283 165.258 237.854 165.091 237.303 165.091C236.927 165.091 236.589 165.171 236.291 165.331C235.996 165.491 235.764 165.725 235.593 166.034C235.426 166.339 235.343 166.709 235.343 167.142ZM246.22 172.165C245.453 172.165 244.784 171.989 244.212 171.638C243.64 171.286 243.196 170.794 242.88 170.162C242.564 169.53 242.406 168.792 242.406 167.946C242.406 167.098 242.564 166.355 242.88 165.72C243.196 165.084 243.64 164.591 244.212 164.239C244.784 163.887 245.453 163.712 246.22 163.712C246.987 163.712 247.657 163.887 248.228 164.239C248.8 164.591 249.244 165.084 249.56 165.72C249.876 166.355 250.034 167.098 250.034 167.946C250.034 168.792 249.876 169.53 249.56 170.162C249.244 170.794 248.8 171.286 248.228 171.638C247.657 171.989 246.987 172.165 246.22 172.165ZM246.225 170.828C246.723 170.828 247.135 170.697 247.461 170.434C247.788 170.171 248.029 169.821 248.186 169.385C248.346 168.948 248.425 168.467 248.425 167.941C248.425 167.419 248.346 166.94 248.186 166.503C248.029 166.062 247.788 165.709 247.461 165.443C247.135 165.176 246.723 165.043 246.225 165.043C245.725 165.043 245.309 165.176 244.979 165.443C244.652 165.709 244.409 166.062 244.249 166.503C244.093 166.94 244.015 167.419 244.015 167.941C244.015 168.467 244.093 168.948 244.249 169.385C244.409 169.821 244.652 170.171 244.979 170.434C245.309 170.697 245.725 170.828 246.225 170.828ZM253.405 167.142V172H251.812V163.818H253.341V165.15H253.442C253.63 164.717 253.925 164.369 254.326 164.106C254.731 163.843 255.241 163.712 255.855 163.712C256.412 163.712 256.901 163.829 257.32 164.063C257.739 164.294 258.064 164.638 258.294 165.097C258.525 165.555 258.641 166.121 258.641 166.796V172H257.048V166.988C257.048 166.395 256.894 165.931 256.585 165.597C256.276 165.26 255.851 165.091 255.312 165.091C254.942 165.091 254.614 165.171 254.326 165.331C254.042 165.491 253.816 165.725 253.65 166.034C253.486 166.339 253.405 166.709 253.405 167.142ZM264.303 172.165C263.497 172.165 262.803 171.993 262.22 171.648C261.641 171.3 261.194 170.812 260.878 170.184C260.565 169.551 260.409 168.811 260.409 167.962C260.409 167.124 260.565 166.386 260.878 165.746C261.194 165.107 261.634 164.608 262.199 164.25C262.767 163.891 263.431 163.712 264.191 163.712C264.653 163.712 265.1 163.788 265.533 163.941C265.967 164.093 266.356 164.333 266.7 164.66C267.044 164.987 267.316 165.411 267.515 165.933C267.714 166.451 267.813 167.082 267.813 167.824V168.388H261.309V167.195H266.253C266.253 166.776 266.167 166.405 265.997 166.082C265.826 165.755 265.587 165.498 265.278 165.31C264.972 165.121 264.614 165.027 264.202 165.027C263.754 165.027 263.364 165.137 263.03 165.358C262.7 165.574 262.444 165.858 262.263 166.21C262.085 166.558 261.997 166.936 261.997 167.344V168.277C261.997 168.824 262.092 169.289 262.284 169.672C262.479 170.056 262.751 170.349 263.099 170.551C263.447 170.75 263.854 170.849 264.319 170.849C264.621 170.849 264.896 170.807 265.145 170.722C265.393 170.633 265.608 170.501 265.789 170.327C265.97 170.153 266.109 169.939 266.205 169.683L267.712 169.955C267.591 170.398 267.375 170.787 267.062 171.121C266.753 171.451 266.364 171.709 265.896 171.893C265.43 172.075 264.9 172.165 264.303 172.165Z" fill="white"/>
<path d="M217.174 112C213.776 112 210.975 114.484 210.975 117.5V146.5C210.975 149.516 213.776 152 217.174 152H234.081C237.48 152 240.28 149.516 240.28 146.5V117.5C240.28 114.484 237.48 112 234.081 112H217.174ZM217.174 116H218.944L219.605 117.172C219.895 117.68 220.481 118 221.119 118H230.136C230.775 118 231.36 117.68 231.651 117.172L232.311 116H234.081C235.041 116 235.772 116.648 235.772 117.5V146.5C235.772 147.352 235.041 148 234.081 148H217.174C216.215 148 215.484 147.352 215.484 146.5V117.5C215.484 116.648 216.215 116 217.174 116Z" fill="white"/>
</g>
<g filter="url(#filter1_d_236_145)">
<rect x="312" y="91" width="133" height="108" rx="10" fill="#8CD673"/>
<path d="M332.335 172L329.309 161.091H331.04L333.165 169.539H333.267L335.477 161.091H337.192L339.403 169.544H339.504L341.624 161.091H343.361L340.33 172H338.673L336.377 163.829H336.292L333.996 172H332.335ZM347.374 172.165C346.607 172.165 345.938 171.989 345.366 171.638C344.795 171.286 344.351 170.794 344.035 170.162C343.719 169.53 343.561 168.792 343.561 167.946C343.561 167.098 343.719 166.355 344.035 165.72C344.351 165.084 344.795 164.591 345.366 164.239C345.938 163.887 346.607 163.712 347.374 163.712C348.142 163.712 348.811 163.887 349.383 164.239C349.954 164.591 350.398 165.084 350.714 165.72C351.03 166.355 351.188 167.098 351.188 167.946C351.188 168.792 351.03 169.53 350.714 170.162C350.398 170.794 349.954 171.286 349.383 171.638C348.811 171.989 348.142 172.165 347.374 172.165ZM347.38 170.828C347.877 170.828 348.289 170.697 348.616 170.434C348.942 170.171 349.184 169.821 349.34 169.385C349.5 168.948 349.58 168.467 349.58 167.941C349.58 167.419 349.5 166.94 349.34 166.503C349.184 166.062 348.942 165.709 348.616 165.443C348.289 165.176 347.877 165.043 347.38 165.043C346.879 165.043 346.464 165.176 346.133 165.443C345.807 165.709 345.563 166.062 345.404 166.503C345.247 166.94 345.169 167.419 345.169 167.941C345.169 168.467 345.247 168.948 345.404 169.385C345.563 169.821 345.807 170.171 346.133 170.434C346.464 170.697 346.879 170.828 347.38 170.828ZM352.966 172V163.818H354.506V165.118H354.591C354.74 164.678 355.003 164.331 355.379 164.079C355.759 163.824 356.189 163.696 356.668 163.696C356.768 163.696 356.885 163.699 357.02 163.706C357.158 163.713 357.267 163.722 357.345 163.733V165.256C357.281 165.239 357.167 165.219 357.004 165.198C356.84 165.173 356.677 165.161 356.514 165.161C356.137 165.161 355.802 165.24 355.507 165.4C355.216 165.556 354.985 165.775 354.815 166.055C354.644 166.332 354.559 166.648 354.559 167.004V172H352.966ZM360.188 169.225L360.177 167.281H360.454L363.714 163.818H365.621L361.903 167.76H361.653L360.188 169.225ZM358.723 172V161.091H360.316V172H358.723ZM363.89 172L360.96 168.112L362.058 166.998L365.845 172H363.89ZM374.105 172.16C373.445 172.16 372.855 171.991 372.337 171.654C371.822 171.313 371.417 170.828 371.122 170.2C370.831 169.567 370.685 168.809 370.685 167.925C370.685 167.041 370.833 166.284 371.128 165.656C371.426 165.027 371.834 164.546 372.353 164.212C372.871 163.879 373.459 163.712 374.116 163.712C374.624 163.712 375.032 163.797 375.341 163.967C375.653 164.134 375.895 164.33 376.065 164.553C376.239 164.777 376.374 164.974 376.47 165.145H376.566V161.091H378.159V172H376.603V170.727H376.47C376.374 170.901 376.236 171.1 376.055 171.324C375.877 171.547 375.632 171.743 375.32 171.909C375.007 172.076 374.602 172.16 374.105 172.16ZM374.457 170.801C374.915 170.801 375.302 170.681 375.618 170.439C375.938 170.194 376.179 169.855 376.342 169.422C376.509 168.989 376.593 168.484 376.593 167.909C376.593 167.341 376.511 166.844 376.348 166.418C376.184 165.991 375.945 165.659 375.629 165.422C375.313 165.184 374.922 165.065 374.457 165.065C373.977 165.065 373.578 165.189 373.258 165.438C372.939 165.686 372.697 166.025 372.534 166.455C372.374 166.885 372.294 167.369 372.294 167.909C372.294 168.456 372.376 168.948 372.539 169.385C372.703 169.821 372.944 170.168 373.264 170.423C373.587 170.675 373.984 170.801 374.457 170.801ZM383.958 172.165C383.152 172.165 382.458 171.993 381.876 171.648C381.297 171.3 380.849 170.812 380.533 170.184C380.221 169.551 380.064 168.811 380.064 167.962C380.064 167.124 380.221 166.386 380.533 165.746C380.849 165.107 381.29 164.608 381.854 164.25C382.422 163.891 383.086 163.712 383.846 163.712C384.308 163.712 384.756 163.788 385.189 163.941C385.622 164.093 386.011 164.333 386.355 164.66C386.7 164.987 386.971 165.411 387.17 165.933C387.369 166.451 387.469 167.082 387.469 167.824V168.388H380.965V167.195H385.908C385.908 166.776 385.823 166.405 385.652 166.082C385.482 165.755 385.242 165.498 384.933 165.31C384.628 165.121 384.269 165.027 383.857 165.027C383.41 165.027 383.019 165.137 382.685 165.358C382.355 165.574 382.099 165.858 381.918 166.21C381.741 166.558 381.652 166.936 381.652 167.344V168.277C381.652 168.824 381.748 169.289 381.939 169.672C382.135 170.056 382.406 170.349 382.754 170.551C383.102 170.75 383.509 170.849 383.974 170.849C384.276 170.849 384.551 170.807 384.8 170.722C385.048 170.633 385.263 170.501 385.444 170.327C385.626 170.153 385.764 169.939 385.86 169.683L387.367 169.955C387.247 170.398 387.03 170.787 386.718 171.121C386.409 171.451 386.02 171.709 385.551 171.893C385.086 172.075 384.555 172.165 383.958 172.165ZM395.367 165.816L393.923 166.071C393.863 165.887 393.767 165.711 393.636 165.544C393.508 165.377 393.334 165.24 393.114 165.134C392.893 165.027 392.618 164.974 392.288 164.974C391.837 164.974 391.46 165.075 391.159 165.278C390.857 165.477 390.706 165.734 390.706 166.05C390.706 166.324 390.807 166.544 391.009 166.711C391.212 166.877 391.539 167.014 391.99 167.121L393.289 167.419C394.042 167.593 394.603 167.861 394.973 168.223C395.342 168.586 395.527 169.056 395.527 169.635C395.527 170.125 395.384 170.562 395.1 170.945C394.82 171.325 394.427 171.624 393.923 171.84C393.422 172.057 392.842 172.165 392.181 172.165C391.265 172.165 390.518 171.97 389.939 171.579C389.36 171.185 389.005 170.626 388.873 169.901L390.413 169.667C390.509 170.068 390.706 170.372 391.004 170.578C391.302 170.78 391.691 170.881 392.171 170.881C392.693 170.881 393.11 170.773 393.422 170.556C393.735 170.336 393.891 170.068 393.891 169.752C393.891 169.496 393.795 169.282 393.604 169.108C393.415 168.934 393.126 168.802 392.735 168.713L391.35 168.41C390.587 168.236 390.022 167.959 389.657 167.579C389.294 167.199 389.113 166.718 389.113 166.135C389.113 165.652 389.248 165.23 389.518 164.868C389.788 164.505 390.161 164.223 390.637 164.021C391.112 163.815 391.658 163.712 392.272 163.712C393.156 163.712 393.852 163.903 394.36 164.287C394.868 164.667 395.203 165.176 395.367 165.816ZM398.743 169.225L398.732 167.281H399.009L402.269 163.818H404.176L400.458 167.76H400.207L398.743 169.225ZM397.278 172V161.091H398.87V172H397.278ZM402.445 172L399.515 168.112L400.612 166.998L404.4 172H402.445ZM409.447 163.818V165.097H404.977V163.818H409.447ZM406.176 161.858H407.769V169.598C407.769 169.907 407.815 170.139 407.907 170.295C407.999 170.448 408.118 170.553 408.264 170.61C408.413 170.663 408.575 170.69 408.749 170.69C408.877 170.69 408.988 170.681 409.084 170.663C409.18 170.645 409.255 170.631 409.308 170.62L409.596 171.936C409.503 171.972 409.372 172.007 409.202 172.043C409.031 172.082 408.818 172.103 408.562 172.107C408.143 172.114 407.753 172.039 407.39 171.883C407.028 171.727 406.735 171.485 406.512 171.158C406.288 170.832 406.176 170.422 406.176 169.928V161.858ZM414.567 172.165C413.8 172.165 413.13 171.989 412.559 171.638C411.987 171.286 411.543 170.794 411.227 170.162C410.911 169.53 410.753 168.792 410.753 167.946C410.753 167.098 410.911 166.355 411.227 165.72C411.543 165.084 411.987 164.591 412.559 164.239C413.13 163.887 413.8 163.712 414.567 163.712C415.334 163.712 416.003 163.887 416.575 164.239C417.147 164.591 417.591 165.084 417.907 165.72C418.223 166.355 418.381 167.098 418.381 167.946C418.381 168.792 418.223 169.53 417.907 170.162C417.591 170.794 417.147 171.286 416.575 171.638C416.003 171.989 415.334 172.165 414.567 172.165ZM414.572 170.828C415.069 170.828 415.481 170.697 415.808 170.434C416.135 170.171 416.376 169.821 416.532 169.385C416.692 168.948 416.772 168.467 416.772 167.941C416.772 167.419 416.692 166.94 416.532 166.503C416.376 166.062 416.135 165.709 415.808 165.443C415.481 165.176 415.069 165.043 414.572 165.043C414.071 165.043 413.656 165.176 413.326 165.443C412.999 165.709 412.756 166.062 412.596 166.503C412.44 166.94 412.362 167.419 412.362 167.941C412.362 168.467 412.44 168.948 412.596 169.385C412.756 169.821 412.999 170.171 413.326 170.434C413.656 170.697 414.071 170.828 414.572 170.828ZM420.159 175.068V163.818H421.714V165.145H421.847C421.939 164.974 422.073 164.777 422.247 164.553C422.421 164.33 422.662 164.134 422.971 163.967C423.28 163.797 423.688 163.712 424.196 163.712C424.857 163.712 425.446 163.879 425.965 164.212C426.483 164.546 426.89 165.027 427.184 165.656C427.483 166.284 427.632 167.041 427.632 167.925C427.632 168.809 427.485 169.567 427.19 170.2C426.895 170.828 426.49 171.313 425.975 171.654C425.46 171.991 424.873 172.16 424.212 172.16C423.715 172.16 423.308 172.076 422.992 171.909C422.68 171.743 422.435 171.547 422.257 171.324C422.08 171.1 421.943 170.901 421.847 170.727H421.751V175.068H420.159ZM421.719 167.909C421.719 168.484 421.803 168.989 421.97 169.422C422.137 169.855 422.378 170.194 422.694 170.439C423.01 170.681 423.397 170.801 423.855 170.801C424.331 170.801 424.729 170.675 425.048 170.423C425.368 170.168 425.61 169.821 425.773 169.385C425.94 168.948 426.023 168.456 426.023 167.909C426.023 167.369 425.942 166.885 425.778 166.455C425.618 166.025 425.377 165.686 425.054 165.438C424.734 165.189 424.335 165.065 423.855 165.065C423.394 165.065 423.003 165.184 422.683 165.422C422.367 165.659 422.128 165.991 421.964 166.418C421.801 166.844 421.719 167.341 421.719 167.909Z" fill="white"/>
<path d="M361.625 115.75C359.553 115.75 357.875 117.428 357.875 119.5V142C357.875 144.072 359.553 145.75 361.625 145.75H374.75V149.5H372.875C371.84 149.5 371 150.34 371 151.375C371 152.41 371.84 153.25 372.875 153.25H384.125C385.16 153.25 386 152.41 386 151.375C386 150.34 385.16 149.5 384.125 149.5H382.25V145.75H395.375C397.447 145.75 399.125 144.072 399.125 142V119.5C399.125 117.428 397.447 115.75 395.375 115.75H361.625ZM361.625 119.5H395.375V142H361.625V119.5Z" fill="white"/>
</g>
<g filter="url(#filter2_d_236_145)">
<rect x="161" y="219" width="133" height="108" rx="10" fill="#28282C"/>
<path d="M198.12 291H196.373L200.299 280.091H202.2L206.126 291H204.379L201.295 282.072H201.21L198.12 291ZM198.413 286.728H204.081V288.113H198.413V286.728ZM210.505 291.16C209.844 291.16 209.255 290.991 208.736 290.654C208.221 290.313 207.816 289.828 207.522 289.2C207.23 288.567 207.085 287.809 207.085 286.925C207.085 286.041 207.232 285.284 207.527 284.656C207.825 284.027 208.234 283.546 208.752 283.212C209.271 282.879 209.858 282.712 210.515 282.712C211.023 282.712 211.431 282.797 211.74 282.967C212.053 283.134 212.294 283.33 212.465 283.553C212.639 283.777 212.774 283.974 212.87 284.145H212.966V280.091H214.558V291H213.003V289.727H212.87C212.774 289.901 212.635 290.1 212.454 290.324C212.277 290.547 212.032 290.743 211.719 290.909C211.407 291.076 211.002 291.16 210.505 291.16ZM210.856 289.801C211.314 289.801 211.701 289.681 212.017 289.439C212.337 289.194 212.578 288.855 212.742 288.422C212.909 287.989 212.992 287.484 212.992 286.909C212.992 286.341 212.911 285.844 212.747 285.418C212.584 284.991 212.344 284.659 212.028 284.422C211.712 284.184 211.321 284.065 210.856 284.065C210.377 284.065 209.977 284.189 209.658 284.438C209.338 284.686 209.097 285.025 208.933 285.455C208.773 285.885 208.694 286.369 208.694 286.909C208.694 287.456 208.775 287.948 208.939 288.385C209.102 288.821 209.343 289.168 209.663 289.423C209.986 289.675 210.384 289.801 210.856 289.801ZM219.894 291.16C219.234 291.16 218.644 290.991 218.126 290.654C217.611 290.313 217.206 289.828 216.911 289.2C216.62 288.567 216.475 287.809 216.475 286.925C216.475 286.041 216.622 285.284 216.917 284.656C217.215 284.027 217.623 283.546 218.142 283.212C218.66 282.879 219.248 282.712 219.905 282.712C220.413 282.712 220.821 282.797 221.13 282.967C221.443 283.134 221.684 283.33 221.854 283.553C222.028 283.777 222.163 283.974 222.259 284.145H222.355V280.091H223.948V291H222.392V289.727H222.259C222.163 289.901 222.025 290.1 221.844 290.324C221.666 290.547 221.421 290.743 221.109 290.909C220.796 291.076 220.391 291.16 219.894 291.16ZM220.246 289.801C220.704 289.801 221.091 289.681 221.407 289.439C221.727 289.194 221.968 288.855 222.131 288.422C222.298 287.989 222.382 287.484 222.382 286.909C222.382 286.341 222.3 285.844 222.137 285.418C221.973 284.991 221.734 284.659 221.418 284.422C221.102 284.184 220.711 284.065 220.246 284.065C219.766 284.065 219.367 284.189 219.047 284.438C218.728 284.686 218.486 285.025 218.323 285.455C218.163 285.885 218.083 286.369 218.083 286.909C218.083 287.456 218.165 287.948 218.328 288.385C218.492 288.821 218.733 289.168 219.053 289.423C219.376 289.675 219.774 289.801 220.246 289.801ZM231.783 286.142V291H230.191V282.818H231.72V284.15H231.821C232.009 283.717 232.304 283.369 232.705 283.106C233.11 282.843 233.619 282.712 234.234 282.712C234.791 282.712 235.28 282.829 235.699 283.063C236.118 283.294 236.443 283.638 236.673 284.097C236.904 284.555 237.02 285.121 237.02 285.796V291H235.427V285.988C235.427 285.395 235.272 284.931 234.964 284.597C234.655 284.26 234.23 284.091 233.69 284.091C233.321 284.091 232.993 284.171 232.705 284.331C232.421 284.491 232.195 284.725 232.028 285.034C231.865 285.339 231.783 285.709 231.783 286.142ZM242.682 291.165C241.876 291.165 241.182 290.993 240.599 290.648C240.02 290.3 239.573 289.812 239.257 289.184C238.944 288.551 238.788 287.811 238.788 286.962C238.788 286.124 238.944 285.386 239.257 284.746C239.573 284.107 240.013 283.608 240.578 283.25C241.146 282.891 241.81 282.712 242.57 282.712C243.032 282.712 243.479 282.788 243.912 282.941C244.346 283.093 244.734 283.333 245.079 283.66C245.423 283.987 245.695 284.411 245.894 284.933C246.093 285.451 246.192 286.082 246.192 286.824V287.388H239.688V286.195H244.631C244.631 285.776 244.546 285.405 244.376 285.082C244.205 284.755 243.966 284.498 243.657 284.31C243.351 284.121 242.993 284.027 242.581 284.027C242.133 284.027 241.743 284.137 241.409 284.358C241.079 284.574 240.823 284.858 240.642 285.21C240.464 285.558 240.375 285.936 240.375 286.344V287.277C240.375 287.824 240.471 288.289 240.663 288.672C240.858 289.056 241.13 289.349 241.478 289.551C241.826 289.75 242.233 289.849 242.698 289.849C243 289.849 243.275 289.807 243.524 289.722C243.772 289.633 243.987 289.501 244.168 289.327C244.349 289.153 244.488 288.939 244.584 288.683L246.091 288.955C245.97 289.398 245.754 289.787 245.441 290.121C245.132 290.451 244.743 290.709 244.275 290.893C243.809 291.075 243.278 291.165 242.682 291.165ZM249.718 291L247.311 282.818H248.957L250.56 288.827H250.64L252.249 282.818H253.895L255.493 288.8H255.573L257.165 282.818H258.811L256.409 291H254.784L253.122 285.093H253L251.338 291H249.718Z" fill="white"/>
<path d="M228.5 259.5H220.25M228.5 251.25V259.5V251.25ZM228.5 259.5V267.75V259.5ZM228.5 259.5H236.75H228.5Z" stroke="white" stroke-width="2" stroke-linecap="round" stroke-linejoin="round"/>
</g>
<path d="M0 10C0 4.47716 4.47715 0 10 0H129V354H10C4.47715 354 0 349.523 0 344V10Z" fill="#28282C"/>
<rect x="18" y="42" width="94" height="12" rx="6" fill="#35353A"/>
<rect x="18" y="65" width="50" height="12" rx="6" fill="#35353A"/>
<defs>
<filter id="filter0_d_236_145" x="154" y="91" width="141" height="116" filterUnits="userSpaceOnUse" color-interpolation-filters="sRGB">
<feFlood flood-opacity="0" result="BackgroundImageFix"/>
<feColorMatrix in="SourceAlpha" type="matrix" values="0 0 0 0 0 0 0 0 0 0 0 0 0 0 0 0 0 0 127 0" result="hardAlpha"/>
<feOffset dy="4"/>
<feGaussianBlur stdDeviation="2"/>
<feComposite in2="hardAlpha" operator="out"/>
<feColorMatrix type="matrix" values="0 0 0 0 0 0 0 0 0 0 0 0 0 0 0 0 0 0 0.25 0"/>
<feBlend mode="normal" in2="BackgroundImageFix" result="effect1_dropShadow_236_145"/>
<feBlend mode="normal" in="SourceGraphic" in2="effect1_dropShadow_236_145" result="shape"/>
</filter>
<filter id="filter1_d_236_145" x="308" y="91" width="141" height="116" filterUnits="userSpaceOnUse" color-interpolation-filters="sRGB">
<feFlood flood-opacity="0" result="BackgroundImageFix"/>
<feColorMatrix in="SourceAlpha" type="matrix" values="0 0 0 0 0 0 0 0 0 0 0 0 0 0 0 0 0 0 127 0" result="hardAlpha"/>
<feOffset dy="4"/>
<feGaussianBlur stdDeviation="2"/>
<feComposite in2="hardAlpha" operator="out"/>
<feColorMatrix type="matrix" values="0 0 0 0 0 0 0 0 0 0 0 0 0 0 0 0 0 0 0.25 0"/>
<feBlend mode="normal" in2="BackgroundImageFix" result="effect1_dropShadow_236_145"/>
<feBlend mode="normal" in="SourceGraphic" in2="effect1_dropShadow_236_145" result="shape"/>
</filter>
<filter id="filter2_d_236_145" x="157" y="219" width="141" height="116" filterUnits="userSpaceOnUse" color-interpolation-filters="sRGB">
<feFlood flood-opacity="0" result="BackgroundImageFix"/>
<feColorMatrix in="SourceAlpha" type="matrix" values="0 0 0 0 0 0 0 0 0 0 0 0 0 0 0 0 0 0 127 0" result="hardAlpha"/>
<feOffset dy="4"/>
<feGaussianBlur stdDeviation="2"/>
<feComposite in2="hardAlpha" operator="out"/>
<feColorMatrix type="matrix" values="0 0 0 0 0 0 0 0 0 0 0 0 0 0 0 0 0 0 0.25 0"/>
<feBlend mode="normal" in2="BackgroundImageFix" result="effect1_dropShadow_236_145"/>
<feBlend mode="normal" in="SourceGraphic" in2="effect1_dropShadow_236_145" result="shape"/>
</filter>
</defs>
</svg>
